<?xml version="1.0" encoding="utf-8"?>
<!-- Generator: Adobe Illustrator 25.0.1, SVG Export Plug-In . SVG Version: 6.00 Build 0)  -->
<svg version="1.1" id="Ebene_1" xmlns="http://www.w3.org/2000/svg" xmlns:xlink="http://www.w3.org/1999/xlink" x="0px" y="0px"
	 viewBox="0 0 623.6 396.9" style="enable-background:new 0 0 623.6 396.9;" xml:space="preserve">
<style type="text/css">
	.st0{fill:#FFFFFF;}
</style>
<g>
	<polygon class="st0" points="97.4,209 88.1,209 88.1,283.5 138.8,283.5 138.8,274.4 97.4,274.4 	"/>
	<path class="st0" d="M177.9,209l-30.2,74.4h10.1l6.3-15.8h43.6l6.3,15.8H224L193.9,209H177.9z M167.5,259.1l16.3-41.1h4.3
		l16.3,41.1H167.5z"/>
	<path class="st0" d="M285.1,245.4v-0.7c5.5-2.9,8.9-8.7,8.9-16.3c0-10.8-7.8-19.3-22.4-19.3h-38.2v74.4H276
		c14.8,0,22.4-7.9,22.4-19.5C298.4,253.6,293.3,246.6,285.1,245.4z M242.7,217.6h26.8c9.9,0,14.9,4.8,14.9,12.2
		c0,8.1-4.7,12.9-14.9,12.9h-26.8V217.6z M273.6,275h-30.8v-24.3h32.8c8.5,0,13,4.1,13,12.1C288.6,271,283.6,275,273.6,275z"/>
	<path class="st0" d="M538.1,138.5L538.1,138.5c0-15.6-10.1-24-27.4-24h-35.5v74.4h9.4v-26.4h20.9l21.4,26.4h11.3v0l-21.7-26.7
		C530.2,160.5,538.1,152.4,538.1,138.5z M511,154h-26.5v-31H511c11.6,0,17.4,4.9,17.4,15.8C528.4,149.6,522.6,154,511,154z"/>
	<path class="st0" d="M282.7,113.4c-25.1,0-40.2,14.4-40.2,38.3c0,23.8,15,38.3,40.2,38.3c11.7,0,21.7-3.3,28-7V174
		c-6.9,3.9-16.2,7-27.3,7c-19.8,0-30.9-10.4-30.9-29.3c0-18.8,10.9-29.3,30.9-29.3c11.2,0,20.4,3,27.3,6.9v-8.8
		C304.4,116.7,294.4,113.4,282.7,113.4L282.7,113.4z"/>
	<polygon class="st0" points="334,156.7 380.7,156.7 380.7,188.9 390,188.9 390,114.4 380.7,114.4 380.7,148.3 334,148.3 334,114.4 
		324.7,114.4 324.7,188.9 334,188.9 	"/>
	<polygon class="st0" points="461.4,180.4 415.7,180.4 415.7,156.5 457.5,156.5 457.5,148.6 415.7,148.6 415.7,123 461.4,123 
		461.4,114.4 406.2,114.4 406.2,188.9 461.4,188.9 	"/>
	<polygon class="st0" points="233.5,180.4 187.9,180.4 187.9,156.5 229.6,156.5 229.6,148.6 187.9,148.6 187.9,123 233.5,123 
		233.5,114.4 178.3,114.4 178.3,188.9 233.5,188.9 	"/>
	<path class="st0" d="M125.4,189.9c24.6,0,39.8-14.6,39.8-38.3c0-23.7-15.2-38.3-39.7-38.3h0c-24.7,0-39.9,14.6-39.9,38.3
		C85.5,175.4,100.7,189.9,125.4,189.9z M125.4,122.3c18.7,0,30.1,11.1,30.1,29.3c0,18.3-11.4,29.3-30.1,29.3
		c-18.8,0-30.2-11.1-30.2-29.3C95.2,133.4,106.6,122.3,125.4,122.3z"/>
	<polygon class="st0" points="528.9,274.5 311,274.5 311,283.5 537.9,283.5 537.9,205.9 528.9,205.9 	"/>
</g>
</svg>
